<svg xmlns="http://www.w3.org/2000/svg" viewBox="0 0 100 100" width="100" height="100">
  <circle cx="50" cy="50" r="48" fill="#0D3B29" stroke="#D4AF37" stroke-width="4"/>
  <!-- Crown / Tree Crest -->
  <path d="M 32 65 L 68 65 L 68 60 C 68 60 62 58 60 52 C 58 46 64 42 64 36 C 64 28 56 22 50 22 C 44 22 36 28 36 36 C 36 42 42 46 40 52 C 38 58 32 60 32 60 Z" fill="#D4AF37" />
  <!-- Golden Stars -->
  <polygon points="50,12 52,17 57,17 53,20 54,25 50,22 46,25 47,20 43,17 48,17" fill="#F3E5AB" />
  <!-- G Letter in center -->
  <text x="50" y="58" font-family="'Playfair Display', Georgia, serif" font-size="28" font-weight="bold" fill="#0D3B29" text-anchor="middle">G</text>
</svg>